<?xml version="1.0" encoding="UTF-8" standalone="no"?>
<!DOCTYPE svg PUBLIC "-//W3C//DTD SVG 1.1//EN"
 "http://www.w3.org/Graphics/SVG/1.1/DTD/svg11.dtd">
<!-- Generated by graphviz version 2.46.0 (20210119.1425)
 -->
<!-- Title: dependencies Pages: 1 -->
<svg width="2095pt" height="284pt"
 viewBox="0.00 0.00 2095.00 284.00" xmlns="http://www.w3.org/2000/svg" xmlns:xlink="http://www.w3.org/1999/xlink">
<g id="graph0" class="graph" transform="scale(1 1) rotate(0) translate(4 280)">
<title>dependencies</title>
<polygon fill="white" stroke="transparent" points="-4,4 -4,-280 2091,-280 2091,4 -4,4"/>
<text text-anchor="start" x="1022.51" y="-42.4" font-family="sans-serif" font-weight="bold" font-size="14.00">Legend</text>
<polygon fill="#ffffb3" stroke="transparent" points="809.5,-10 809.5,-30 829.5,-30 829.5,-10 809.5,-10"/>
<text text-anchor="start" x="833.13" y="-15.4" font-family="sans-serif" font-size="14.00"> &#160;Declarations</text>
<polygon fill="#8dd3c7" stroke="transparent" points="922.5,-10 922.5,-30 942.5,-30 942.5,-10 922.5,-10"/>
<text text-anchor="start" x="946.23" y="-15.4" font-family="sans-serif" font-size="14.00"> &#160;Module</text>
<polygon fill="#80b1d3" stroke="transparent" points="1008.5,-10 1008.5,-30 1028.5,-30 1028.5,-10 1008.5,-10"/>
<text text-anchor="start" x="1032.28" y="-15.4" font-family="sans-serif" font-size="14.00"> &#160;Bootstrap</text>
<polygon fill="#fdb462" stroke="transparent" points="1105.5,-10 1105.5,-30 1125.5,-30 1125.5,-10 1105.5,-10"/>
<text text-anchor="start" x="1129.17" y="-15.4" font-family="sans-serif" font-size="14.00"> &#160;Providers</text>
<polygon fill="#fb8072" stroke="transparent" points="1201.5,-10 1201.5,-30 1221.5,-30 1221.5,-10 1201.5,-10"/>
<text text-anchor="start" x="1225.23" y="-15.4" font-family="sans-serif" font-size="14.00"> &#160;Exports</text>
<g id="clust1" class="cluster">
<title>cluster_AppModule</title>
<polygon fill="none" stroke="black" stroke-dasharray="1,5" points="8,-70 8,-268 2079,-268 2079,-70 8,-70"/>
</g>
<g id="clust2" class="cluster">
<title>cluster_AppModule_declarations</title>
<polygon fill="none" stroke="black" points="168,-78 168,-130 2071,-130 2071,-78 168,-78"/>
</g>
<g id="clust16" class="cluster">
<title>cluster_AppModule_imports</title>
<polygon fill="none" stroke="black" points="16,-78 16,-130 160,-130 160,-78 16,-78"/>
</g>
<g id="clust18" class="cluster">
<title>cluster_AppModule_bootstrap</title>
<polygon fill="none" stroke="black" points="1027,-208 1027,-260 1151,-260 1151,-208 1027,-208"/>
</g>
<!-- AlertasComponent -->
<g id="node1" class="node">
<title>AlertasComponent</title>
<polygon fill="#ffffb3" stroke="black" points="2062.75,-122 1941.25,-122 1941.25,-86 2062.75,-86 2062.75,-122"/>
<text text-anchor="middle" x="2002" y="-99.8" font-family="Times,serif" font-size="14.00">AlertasComponent</text>
</g>
<!-- AppModule -->
<g id="node14" class="node">
<title>AppModule</title>
<polygon fill="#8dd3c7" stroke="black" points="1130.66,-187 1127.66,-191 1106.66,-191 1103.66,-187 1047.34,-187 1047.34,-151 1130.66,-151 1130.66,-187"/>
<text text-anchor="middle" x="1089" y="-164.8" font-family="Times,serif" font-size="14.00">AppModule</text>
</g>
<!-- AlertasComponent&#45;&gt;AppModule -->
<g id="edge1" class="edge">
<title>AlertasComponent&#45;&gt;AppModule</title>
<path fill="none" stroke="black" d="M2002,-122.09C2002,-145.13 2002,-182 2002,-182 2002,-182 1140.9,-182 1140.9,-182"/>
<polygon fill="black" stroke="black" points="1140.9,-178.5 1130.9,-182 1140.9,-185.5 1140.9,-178.5"/>
</g>
<!-- AppComponent -->
<g id="node2" class="node">
<title>AppComponent</title>
<polygon fill="#ffffb3" stroke="black" points="1922.94,-122 1817.06,-122 1817.06,-86 1922.94,-86 1922.94,-122"/>
<text text-anchor="middle" x="1870" y="-99.8" font-family="Times,serif" font-size="14.00">AppComponent</text>
</g>
<!-- AppComponent&#45;&gt;AppModule -->
<g id="edge2" class="edge">
<title>AppComponent&#45;&gt;AppModule</title>
<path fill="none" stroke="black" d="M1870,-122.04C1870,-143.66 1870,-177 1870,-177 1870,-177 1140.71,-177 1140.71,-177"/>
<polygon fill="black" stroke="black" points="1140.71,-173.5 1130.71,-177 1140.71,-180.5 1140.71,-173.5"/>
</g>
<!-- FooterComponent -->
<g id="node3" class="node">
<title>FooterComponent</title>
<polygon fill="#ffffb3" stroke="black" points="1798.88,-122 1681.12,-122 1681.12,-86 1798.88,-86 1798.88,-122"/>
<text text-anchor="middle" x="1740" y="-99.8" font-family="Times,serif" font-size="14.00">FooterComponent</text>
</g>
<!-- FooterComponent&#45;&gt;AppModule -->
<g id="edge3" class="edge">
<title>FooterComponent&#45;&gt;AppModule</title>
<path fill="none" stroke="black" d="M1740,-122.22C1740,-142.37 1740,-172 1740,-172 1740,-172 1140.71,-172 1140.71,-172"/>
<polygon fill="black" stroke="black" points="1140.71,-168.5 1130.71,-172 1140.71,-175.5 1140.71,-168.5"/>
</g>
<!-- InicioComponent -->
<g id="node4" class="node">
<title>InicioComponent</title>
<polygon fill="#ffffb3" stroke="black" points="1662.99,-122 1549.01,-122 1549.01,-86 1662.99,-86 1662.99,-122"/>
<text text-anchor="middle" x="1606" y="-99.8" font-family="Times,serif" font-size="14.00">InicioComponent</text>
</g>
<!-- InicioComponent&#45;&gt;AppModule -->
<g id="edge4" class="edge">
<title>InicioComponent&#45;&gt;AppModule</title>
<path fill="none" stroke="black" d="M1606,-122.22C1606,-140.83 1606,-167 1606,-167 1606,-167 1140.87,-167 1140.87,-167"/>
<polygon fill="black" stroke="black" points="1140.87,-163.5 1130.87,-167 1140.87,-170.5 1140.87,-163.5"/>
</g>
<!-- LoginComponent -->
<g id="node5" class="node">
<title>LoginComponent</title>
<polygon fill="#ffffb3" stroke="black" points="1531.28,-122 1416.72,-122 1416.72,-86 1531.28,-86 1531.28,-122"/>
<text text-anchor="middle" x="1474" y="-99.8" font-family="Times,serif" font-size="14.00">LoginComponent</text>
</g>
<!-- LoginComponent&#45;&gt;AppModule -->
<g id="edge5" class="edge">
<title>LoginComponent&#45;&gt;AppModule</title>
<path fill="none" stroke="black" d="M1474,-122.03C1474,-139.06 1474,-162 1474,-162 1474,-162 1140.93,-162 1140.93,-162"/>
<polygon fill="black" stroke="black" points="1140.93,-158.5 1130.93,-162 1140.93,-165.5 1140.93,-158.5"/>
</g>
<!-- MenuComponent -->
<g id="node6" class="node">
<title>MenuComponent</title>
<polygon fill="#ffffb3" stroke="black" points="1398.99,-122 1285.01,-122 1285.01,-86 1398.99,-86 1398.99,-122"/>
<text text-anchor="middle" x="1342" y="-99.8" font-family="Times,serif" font-size="14.00">MenuComponent</text>
</g>
<!-- MenuComponent&#45;&gt;AppModule -->
<g id="edge6" class="edge">
<title>MenuComponent&#45;&gt;AppModule</title>
<path fill="none" stroke="black" d="M1342,-122.24C1342,-137.57 1342,-157 1342,-157 1342,-157 1140.78,-157 1140.78,-157"/>
<polygon fill="black" stroke="black" points="1140.78,-153.5 1130.78,-157 1140.78,-160.5 1140.78,-153.5"/>
</g>
<!-- PostagemDeleteComponent -->
<g id="node7" class="node">
<title>PostagemDeleteComponent</title>
<polygon fill="#ffffb3" stroke="black" points="1267.3,-122 1094.7,-122 1094.7,-86 1267.3,-86 1267.3,-122"/>
<text text-anchor="middle" x="1181" y="-99.8" font-family="Times,serif" font-size="14.00">PostagemDeleteComponent</text>
</g>
<!-- PostagemDeleteComponent&#45;&gt;AppModule -->
<g id="edge7" class="edge">
<title>PostagemDeleteComponent&#45;&gt;AppModule</title>
<path fill="none" stroke="black" d="M1112.84,-122.11C1112.84,-122.11 1112.84,-140.99 1112.84,-140.99"/>
<polygon fill="black" stroke="black" points="1109.34,-140.99 1112.84,-150.99 1116.34,-140.99 1109.34,-140.99"/>
</g>
<!-- PostagemEditComponent -->
<g id="node8" class="node">
<title>PostagemEditComponent</title>
<polygon fill="#ffffb3" stroke="black" points="1076.6,-122 917.4,-122 917.4,-86 1076.6,-86 1076.6,-122"/>
<text text-anchor="middle" x="997" y="-99.8" font-family="Times,serif" font-size="14.00">PostagemEditComponent</text>
</g>
<!-- PostagemEditComponent&#45;&gt;AppModule -->
<g id="edge8" class="edge">
<title>PostagemEditComponent&#45;&gt;AppModule</title>
<path fill="none" stroke="black" d="M1061.86,-122.11C1061.86,-122.11 1061.86,-140.99 1061.86,-140.99"/>
<polygon fill="black" stroke="black" points="1058.36,-140.99 1061.86,-150.99 1065.36,-140.99 1058.36,-140.99"/>
</g>
<!-- SignupComponent -->
<g id="node9" class="node">
<title>SignupComponent</title>
<polygon fill="#ffffb3" stroke="black" points="899.51,-122 778.49,-122 778.49,-86 899.51,-86 899.51,-122"/>
<text text-anchor="middle" x="839" y="-99.8" font-family="Times,serif" font-size="14.00">SignupComponent</text>
</g>
<!-- SignupComponent&#45;&gt;AppModule -->
<g id="edge9" class="edge">
<title>SignupComponent&#45;&gt;AppModule</title>
<path fill="none" stroke="black" d="M839,-122.24C839,-137.57 839,-157 839,-157 839,-157 1037.16,-157 1037.16,-157"/>
<polygon fill="black" stroke="black" points="1037.16,-160.5 1047.16,-157 1037.16,-153.5 1037.16,-160.5"/>
</g>
<!-- TemaComponent -->
<g id="node10" class="node">
<title>TemaComponent</title>
<polygon fill="#ffffb3" stroke="black" points="760.7,-122 647.3,-122 647.3,-86 760.7,-86 760.7,-122"/>
<text text-anchor="middle" x="704" y="-99.8" font-family="Times,serif" font-size="14.00">TemaComponent</text>
</g>
<!-- TemaComponent&#45;&gt;AppModule -->
<g id="edge10" class="edge">
<title>TemaComponent&#45;&gt;AppModule</title>
<path fill="none" stroke="black" d="M704,-122.03C704,-139.06 704,-162 704,-162 704,-162 1037.07,-162 1037.07,-162"/>
<polygon fill="black" stroke="black" points="1037.07,-165.5 1047.07,-162 1037.07,-158.5 1037.07,-165.5"/>
</g>
<!-- TemaDeleteComponent -->
<g id="node11" class="node">
<title>TemaDeleteComponent</title>
<polygon fill="#ffffb3" stroke="black" points="629.74,-122 480.26,-122 480.26,-86 629.74,-86 629.74,-122"/>
<text text-anchor="middle" x="555" y="-99.8" font-family="Times,serif" font-size="14.00">TemaDeleteComponent</text>
</g>
<!-- TemaDeleteComponent&#45;&gt;AppModule -->
<g id="edge11" class="edge">
<title>TemaDeleteComponent&#45;&gt;AppModule</title>
<path fill="none" stroke="black" d="M555,-122.22C555,-140.83 555,-167 555,-167 555,-167 1037.1,-167 1037.1,-167"/>
<polygon fill="black" stroke="black" points="1037.1,-170.5 1047.1,-167 1037.1,-163.5 1037.1,-170.5"/>
</g>
<!-- TemaEditComponent -->
<g id="node12" class="node">
<title>TemaEditComponent</title>
<polygon fill="#ffffb3" stroke="black" points="462.04,-122 325.96,-122 325.96,-86 462.04,-86 462.04,-122"/>
<text text-anchor="middle" x="394" y="-99.8" font-family="Times,serif" font-size="14.00">TemaEditComponent</text>
</g>
<!-- TemaEditComponent&#45;&gt;AppModule -->
<g id="edge12" class="edge">
<title>TemaEditComponent&#45;&gt;AppModule</title>
<path fill="none" stroke="black" d="M394,-122.22C394,-142.37 394,-172 394,-172 394,-172 1037.09,-172 1037.09,-172"/>
<polygon fill="black" stroke="black" points="1037.09,-175.5 1047.09,-172 1037.09,-168.5 1037.09,-175.5"/>
</g>
<!-- UserEditComponent -->
<g id="node13" class="node">
<title>UserEditComponent</title>
<polygon fill="#ffffb3" stroke="black" points="307.59,-122 176.41,-122 176.41,-86 307.59,-86 307.59,-122"/>
<text text-anchor="middle" x="242" y="-99.8" font-family="Times,serif" font-size="14.00">UserEditComponent</text>
</g>
<!-- UserEditComponent&#45;&gt;AppModule -->
<g id="edge13" class="edge">
<title>UserEditComponent&#45;&gt;AppModule</title>
<path fill="none" stroke="black" d="M242,-122.04C242,-143.66 242,-177 242,-177 242,-177 1037.29,-177 1037.29,-177"/>
<polygon fill="black" stroke="black" points="1037.29,-180.5 1047.29,-177 1037.29,-173.5 1037.29,-180.5"/>
</g>
<!-- AppComponent  -->
<g id="node16" class="node">
<title>AppComponent </title>
<polygon fill="#80b1d3" stroke="black" points="1143.44,-252 1034.56,-252 1034.56,-216 1143.44,-216 1143.44,-252"/>
<text text-anchor="middle" x="1089" y="-229.8" font-family="Times,serif" font-size="14.00">AppComponent </text>
</g>
<!-- AppModule&#45;&gt;AppComponent  -->
<g id="edge15" class="edge">
<title>AppModule&#45;&gt;AppComponent </title>
<path fill="none" stroke="black" stroke-dasharray="1,5" d="M1089,-187.11C1089,-187.11 1089,-205.99 1089,-205.99"/>
<polygon fill="black" stroke="black" points="1085.5,-205.99 1089,-215.99 1092.5,-205.99 1085.5,-205.99"/>
</g>
<!-- AppRoutingModule -->
<g id="node15" class="node">
<title>AppRoutingModule</title>
<polygon fill="#8dd3c7" stroke="black" points="152.27,-122 149.27,-126 128.27,-126 125.27,-122 23.73,-122 23.73,-86 152.27,-86 152.27,-122"/>
<text text-anchor="middle" x="88" y="-99.8" font-family="Times,serif" font-size="14.00">AppRoutingModule</text>
</g>
<!-- AppRoutingModule&#45;&gt;AppModule -->
<g id="edge14" class="edge">
<title>AppRoutingModule&#45;&gt;AppModule</title>
<path fill="none" stroke="black" d="M88,-122.09C88,-145.13 88,-182 88,-182 88,-182 1037.26,-182 1037.26,-182"/>
<polygon fill="black" stroke="black" points="1037.26,-185.5 1047.26,-182 1037.26,-178.5 1037.26,-185.5"/>
</g>
</g>
</svg>
